<?xml version="1.0" encoding="UTF-8"?>
<svg id="Layer_1" xmlns="http://www.w3.org/2000/svg" version="1.1" viewBox="0 0 595.28 419.53">
  <!-- Generator: Adobe Illustrator 29.8.3, SVG Export Plug-In . SVG Version: 2.1.1 Build 3)  -->
  <g>
    <g id="_x3C_Radial_Repeat_x3E_">
      <g>
        <path d="M323.17,240.22c1.07.75-7.88,14.64-8.91,16-2.7,3.59-6.76,8.07-10.1,11.03-1.55,1.38-6.04,5.44-7.79,5.2-2.27-.31-12.59-6.89-14.94-8.63-24.31-17.97-34.04-47.86-29.36-77.35l14.83,1.6c-1.65,5.86-3.55,11.28-10.54,11.75,6.33,20.33,24.03,36.14,44.96,40.05,2.59.48,9.4,1.66,11.65,1.42l10.21-1.08Z"/>
        <path d="M323.09,178.95l-14.16,4.67c2.73,5.09,5.97,10.73,12.72,8.99-1.03,13.67-7.2,25.48-16.1,35.35.83.31,1.64.66,2.42,1.12,1.04.81,2.08,1.61,3.13,2.42.66.66,1.22,1.38,1.73,2.12,4.61.08,9.19-.35,13.63-1.76,4.71-17.51,3.01-36.01-3.38-52.91Z"/>
        <path d="M286.88,205.29c3.45-.85,15.38-.4,16.88,3.18,2.68,6.39-3,16.94-9.54,18.75-8.23,2.28-17.79-7.14-17.11-15.43.22-2.67,7.35-5.91,9.77-6.5Z"/>
      </g>
    </g>
    <g id="_x3C_Radial_Repeat_x3E_1" data-name="_x3C_Radial_Repeat_x3E_">
      <g>
        <path d="M234.77,223.86c-.18,1.29-16.62-.37-18.3-.67-4.42-.78-10.25-2.36-14.42-3.99-1.93-.76-7.59-2.91-8.17-4.58-.75-2.17.42-14.35.9-17.23,4.98-29.82,27.19-52.06,55.59-61.28l5.31,13.94c-5.97,1.19-11.66,1.95-15.25-4.05-15.24,14.87-21.29,37.82-15.27,58.24.74,2.53,2.79,9.13,4.02,11.03l5.6,8.6Z"/>
        <path d="M289.33,195.97c-12.15,13.36-27.86,23.28-45.6,27.03-6.05-6.14-9.39-14.24-12.11-22.29,14.67,5.16,30.23,6.31,44.89.18-4.62-5.22-1.06-10.67,2.23-15.42l10.59,10.5Z"/>
        <path d="M249.42,175.67c2.32,2.69,7.34,13.52,4.83,16.49-4.47,5.29-16.45,5.01-21.03.01-5.77-6.3-1.72-19.09,5.98-22.25,2.48-1.02,8.6,3.87,10.23,5.75Z"/>
      </g>
    </g>
    <g id="_x3C_Radial_Repeat_x3E_2" data-name="_x3C_Radial_Repeat_x3E_">
      <g>
        <path d="M290.94,109.83c-.46-.8-.82-1.63-1.13-2.47-20.72-18.05-48.4-25.8-75.16-17.35-2.79.88-14.17,5.36-15.76,7.02-1.23,1.28-.58,7.3-.37,9.36.43,4.45,1.67,10.37,2.99,14.66.5,1.63,6.48,17.04,7.71,16.61l5.12-8.9c1.13-1.96,6.08-6.78,8-8.59,15.47-14.63,38.66-19.66,58.83-12.83-3.72,5.93-.45,10.65,3.31,15.43l8.77-9.69c-.81-.98-1.74-2.15-2.31-3.25Z"/>
        <path d="M258.83,173.62c-17.42-4.76-33.39-14.25-44.79-28.36,2.73-8.18,8.42-14.83,14.36-20.91,2.07,15.41,8.1,29.8,20.22,40.08,2.56-6.49,9.03-5.79,14.75-5.01l-4.54,14.2Z"/>
        <path d="M258.81,128.84c-1.35,3.29-8.72,12.68-12.5,11.79-6.74-1.59-11.94-12.39-9.56-18.74,2.99-8,16.23-10.2,22.54-4.77,2.03,1.75.46,9.42-.48,11.72Z"/>
      </g>
    </g>
    <g id="_x3C_Radial_Repeat_x3E_3" data-name="_x3C_Radial_Repeat_x3E_">
      <g>
        <path d="M274.41,75.77c-.94-.9,10.07-13.23,11.3-14.41,3.23-3.12,7.94-6.91,11.71-9.32,1.75-1.12,6.81-4.43,8.51-3.92,2.2.67,11.36,8.77,13.41,10.86,21.2,21.55,26.14,52.6,16.9,80.99l-14.39-3.9c2.55-5.52,5.27-10.58,12.24-9.96-3.07-21.07-18.08-39.45-38.14-46.59-2.48-.88-9.02-3.11-11.29-3.23l-10.25-.53Z"/>
        <path d="M264.91,136.3c-3.67-17.68-2.46-36.22,4.93-52.78,8.53-1.28,17.04.77,25.15,3.3-12.79,8.84-22.87,20.75-26.53,36.22,6.94-.67,9.26,5.41,11.16,10.87l-14.72,2.4Z"/>
        <path d="M304.8,115.94c-3.54.3-15.25-2.01-16.18-5.79-1.65-6.73,5.62-16.26,12.36-17.02,8.49-.96,16.46,9.83,14.49,17.92-.64,2.6-8.18,4.69-10.66,4.89Z"/>
      </g>
    </g>
    <g id="_x3C_Radial_Repeat_x3E_4" data-name="_x3C_Radial_Repeat_x3E_">
      <g>
        <path d="M398.11,121.29c-.31-1.75-5.57-4.75-7.35-5.81-3.86-2.27-9.37-4.74-13.62-6.2-1.61-.56-17.59-4.77-17.97-3.52l4.18,9.37c.92,2.07,1.91,8.91,2.25,11.52,2.74,21.11-6.82,42.84-24.2,55.14-2.61-6.49-8.35-6.63-14.43-6.39l2.53,12.05c.69-.08,1.39-.14,2.14-.14,2.28,0,4.29.42,6.04,1.14,26.17-6.44,48.1-24.12,56.84-50.28.93-2.77,3.99-14.62,3.59-16.88Z"/>
        <path d="M300.91,124.76c14.09-11.3,31.16-18.64,49.27-19.57,5.01,7.01,7.05,15.53,8.48,23.91-13.68-7.39-28.87-10.96-44.31-7.2,3.75,5.88-.62,10.71-4.61,14.88l-8.82-12.02Z"/>
        <path d="M337.16,151.07c-1.87-3.02-5.13-14.5-2.19-17.04,5.25-4.52,17.04-2.38,20.78,3.28,4.71,7.12-1.29,19.13-9.39,21.04-2.61.62-7.89-5.16-9.2-7.28Z"/>
      </g>
    </g>
    <g id="_x3C_Radial_Repeat_x3E_5" data-name="_x3C_Radial_Repeat_x3E_">
      <g>
        <path d="M375.94,212.5c-.24-1.69-3.74-17.84-5.02-17.61l-6.45,7.98c-1.42,1.76-7.07,5.75-9.24,7.23-15.1,10.34-34.73,12.76-51.92,6.95-.24.57-.48,1.14-.72,1.71-.97,1.8-2.3,3.25-3.98,4.34-.2.18-.41.33-.61.49,16.63,13.79,37.84,20.85,60.1,17.51,2.89-.43,14.84-3.08,16.67-4.46,1.42-1.07,1.71-7.12,1.83-9.19.27-4.47-.03-10.5-.66-14.95Z"/>
        <path d="M327.54,151.61c16.46,7.43,30.75,19.3,39.8,35.02-3.97,7.65-10.64,13.33-17.46,18.41.37-15.54-3.34-30.7-13.71-42.75-3.54,6.01-9.82,4.31-15.35,2.64l6.71-13.32Z"/>
        <path d="M320.56,195.85c1.84-3.04,10.59-11.16,14.19-9.69,6.41,2.62,9.85,14.1,6.51,20-4.21,7.43-17.63,7.54-23.01,1.19-1.73-2.04,1.02-9.37,2.31-11.5Z"/>
      </g>
    </g>
  </g>
  <g>
    <path d="M252.48,334.88c-2.45,0-4.62-.42-6.5-1.27-1.88-.85-3.45-2.03-4.72-3.54-1.27-1.52-2.23-3.28-2.88-5.29-.65-2.02-.98-4.19-.98-6.52,0-1.3.1-2.61.3-3.93.2-1.32.46-2.58.8-3.79l4.95.95c-.27,1.18-.48,2.33-.64,3.43s-.23,2.22-.23,3.34c0,2.24.39,4.17,1.16,5.77.77,1.6,1.9,2.83,3.38,3.68,1.48.85,3.27,1.27,5.36,1.27s3.97-.42,5.47-1.27c1.5-.85,2.64-2.07,3.43-3.68.79-1.61,1.18-3.54,1.18-5.82v-17.81h5.18v17.81c0,2.36-.33,4.55-1,6.56-.67,2.01-1.65,3.78-2.95,5.29-1.3,1.51-2.89,2.69-4.77,3.54-1.88.85-4.06,1.27-6.54,1.27ZM252.57,300.86c-.91,0-1.68-.31-2.32-.93-.64-.62-.95-1.4-.95-2.34s.32-1.72.95-2.34c.64-.62,1.41-.93,2.32-.93.97,0,1.76.31,2.38.93.62.62.93,1.4.93,2.34s-.31,1.72-.93,2.34c-.62.62-1.42.93-2.38.93ZM272.11,322.66c-2.79,0-4.96-.59-6.52-1.77-1.56-1.18-2.52-2.94-2.88-5.27l5-1.82c.09,1.18.42,1.96,1,2.34.58.38,1.71.57,3.41.57h1.82v5.95h-1.82ZM273.92,322.66v-5.95c.33,0,.57.27.7.82.14.55.2,1.26.2,2.14s-.07,1.63-.2,2.18c-.14.54-.37.82-.7.82Z"/>
    <path d="M273.92,322.66c-.33,0-.57-.27-.7-.82-.14-.55-.2-1.29-.2-2.23,0-.88.07-1.58.2-2.11.14-.53.37-.8.7-.8v5.95ZM273.92,322.66v-5.95h8.36v5.95h-8.36ZM282.28,322.66v-5.95c.33,0,.57.27.7.82.14.55.2,1.26.2,2.14s-.07,1.63-.2,2.18c-.14.54-.37.82-.7.82Z"/>
    <path d="M282.28,322.66c-.33,0-.57-.27-.7-.82-.14-.55-.2-1.29-.2-2.23,0-.88.07-1.58.2-2.11.14-.53.37-.8.7-.8v5.95ZM282.28,322.66v-5.95h8.36v5.95h-8.36ZM290.64,322.66v-5.95c.33,0,.57.27.7.82.14.55.2,1.26.2,2.14s-.07,1.63-.2,2.18c-.14.54-.37.82-.7.82Z"/>
    <path d="M301.27,293.18v-2.59h11.9v2.59h-11.9Z"/>
    <path d="M290.64,322.66c-.33,0-.57-.27-.7-.82-.14-.55-.2-1.29-.2-2.23,0-.88.07-1.58.2-2.11.14-.53.37-.8.7-.8v5.95ZM290.64,322.66v-5.95h8.27c1.27,0,2.65-.21,4.13-.63,1.48-.42,2.95-.97,4.38-1.64,1.44-.67,2.76-1.39,3.95-2.18,1.2-.79,2.15-1.55,2.86-2.29s1.07-1.4,1.07-1.98c0-.54-.35-1.04-1.05-1.5-.7-.45-1.67-.83-2.91-1.14-1.24-.3-2.68-.45-4.32-.45-1.36,0-2.66.11-3.88.34s-2.54.57-3.93,1.02l-1.73,2.18-3.22-1.18,4.13-6.68c1.21-.39,2.54-.74,3.98-1.05,1.44-.3,3.05-.45,4.84-.45,2.63,0,4.95.35,6.95,1.04,2,.7,3.55,1.66,4.66,2.89s1.66,2.67,1.66,4.34c0,1.36-.37,2.7-1.11,4s-1.74,2.52-3,3.66c-1.26,1.13-2.68,2.17-4.27,3.09-1.59.92-3.23,1.74-4.91,2.43s-3.32,1.23-4.93,1.59c-1.6.36-3.04.54-4.32.54h-7.31ZM315.26,322.66c-3.54,0-6.74-.64-9.59-1.93-2.85-1.29-5.24-3.08-7.18-5.38-1.94-2.3-3.35-5-4.22-8.09l4.36-2.68c.45,2.45,1.39,4.6,2.79,6.43,1.41,1.83,3.2,3.24,5.38,4.22s4.63,1.48,7.36,1.48h10.4v5.95h-9.31ZM324.58,322.66v-5.95c.33,0,.57.27.7.82.14.55.2,1.26.2,2.14s-.07,1.63-.2,2.18c-.14.54-.37.82-.7.82Z"/>
    <path d="M324.58,322.66c-.33,0-.57-.27-.7-.82-.14-.55-.2-1.29-.2-2.23,0-.88.07-1.58.2-2.11.14-.53.37-.8.7-.8v5.95ZM324.58,322.66v-5.95c1.42,0,2.6-.26,3.54-.8.94-.53,1.78-1.27,2.52-2.23.74-.95,1.48-2.05,2.2-3.29.73-1.18,1.49-2.36,2.29-3.54.8-1.18,1.7-2.25,2.68-3.2.98-.95,2.07-1.73,3.25-2.32s2.53-.89,4.04-.89c1.64,0,3.04.34,4.22,1.02,1.18.68,2.14,1.61,2.88,2.77s1.29,2.48,1.64,3.93.52,2.95.52,4.5-.21,3.38-.64,5.34c-.42,1.95-1.11,3.76-2.04,5.43l-4.63-2.68c.7-1.21,1.23-2.51,1.59-3.89.36-1.38.55-2.78.55-4.2,0-2.15-.36-3.74-1.07-4.77-.71-1.03-1.72-1.54-3.02-1.54-.85,0-1.67.22-2.45.66-.79.44-1.61,1.18-2.45,2.23-.85,1.04-1.83,2.48-2.95,4.29-1.27,2.06-2.51,3.77-3.7,5.13s-2.51,2.37-3.93,3.02c-1.42.65-3.11.98-5.04.98ZM351.43,317.53l.27,5.91c-2.79.15-5.21.13-7.27-.07-2.06-.2-3.85-.56-5.38-1.09-1.53-.53-2.89-1.2-4.09-2.02-1.2-.82-2.31-1.76-3.34-2.82l3.63-3.95c1.09,1.12,2.35,2.01,3.77,2.66,1.42.65,3.14,1.08,5.16,1.3,2.01.21,4.43.24,7.25.09Z"/>
    <path d="M243.12,343.98h4.07l11.2,21.64,11.07-21.64h4.11v29.35h-3.14l-.04-24.78-11.07,21.64h-1.93l-11.15-21.64v24.78h-3.1v-29.35Z"/>
    <path d="M288.79,362.97c-1.85,0-3.24.31-4.19.92-.95.62-1.43,1.55-1.43,2.81s.45,2.27,1.36,3.04,2.15,1.15,3.71,1.15c1.29,0,2.45-.21,3.48-.63,1.03-.42,1.89-1.02,2.58-1.8.68-.78,1.15-1.73,1.4-2.85l.84,2.64c-.78,1.76-1.94,3.07-3.48,3.92-1.54.85-3.36,1.28-5.45,1.28-1.51,0-2.83-.29-3.96-.88s-2.01-1.38-2.62-2.39c-.62-1.01-.92-2.14-.92-3.4,0-1.9.73-3.41,2.18-4.53,1.45-1.12,3.48-1.69,6.08-1.72h7.84v2.43h-7.42ZM295.63,359.07c0-1.68-.5-2.98-1.49-3.9-.99-.92-2.47-1.38-4.42-1.38-1.23,0-2.42.22-3.56.67s-2.29,1.08-3.44,1.89l-1.38-2.14c.95-.64,1.87-1.19,2.77-1.63.89-.45,1.85-.79,2.85-1.03,1.01-.24,2.14-.36,3.4-.36,2.74,0,4.84.68,6.29,2.03s2.2,3.21,2.22,5.56l.04,14.55h-3.19l-.08-14.26Z"/>
    <path d="M312.99,362.97c-1.85,0-3.24.31-4.19.92-.95.62-1.43,1.55-1.43,2.81s.45,2.27,1.36,3.04,2.15,1.15,3.71,1.15c1.29,0,2.45-.21,3.48-.63,1.03-.42,1.89-1.02,2.58-1.8.68-.78,1.15-1.73,1.4-2.85l.84,2.64c-.78,1.76-1.94,3.07-3.48,3.92-1.54.85-3.36,1.28-5.45,1.28-1.51,0-2.83-.29-3.96-.88s-2.01-1.38-2.62-2.39c-.62-1.01-.92-2.14-.92-3.4,0-1.9.73-3.41,2.18-4.53,1.45-1.12,3.48-1.69,6.08-1.72h7.84v2.43h-7.42ZM319.82,359.07c0-1.68-.5-2.98-1.49-3.9-.99-.92-2.47-1.38-4.42-1.38-1.23,0-2.42.22-3.56.67s-2.29,1.08-3.44,1.89l-1.38-2.14c.95-.64,1.87-1.19,2.77-1.63.89-.45,1.85-.79,2.85-1.03,1.01-.24,2.14-.36,3.4-.36,2.74,0,4.84.68,6.29,2.03s2.2,3.21,2.22,5.56l.04,14.55h-3.19l-.08-14.26Z"/>
    <path d="M330.39,351.27h3.27v22.06h-3.27v-22.06ZM347.33,360.54c0-2.01-.55-3.58-1.66-4.72-1.1-1.13-2.64-1.7-4.59-1.7-2.35.03-4.18.82-5.49,2.37-1.31,1.55-1.97,3.56-1.97,6.02h-1.13c0-2.57.39-4.69,1.17-6.35.78-1.66,1.91-2.91,3.38-3.73s3.19-1.24,5.18-1.24c1.76,0,3.27.35,4.53,1.05,1.26.7,2.21,1.69,2.87,2.96.66,1.27.99,2.8.99,4.59v13.54h-3.27v-12.79Z"/>
  </g>
</svg>